<?xml version="1.0" standalone="no"?>
<!DOCTYPE svg PUBLIC "-//W3C//DTD SVG 20010904//EN"
 "http://www.w3.org/TR/2001/REC-SVG-20010904/DTD/svg10.dtd">
<svg version="1.0" xmlns="http://www.w3.org/2000/svg"
 width="630.000000pt" height="630.000000pt" viewBox="0 0 630.000000 630.000000"
 preserveAspectRatio="xMidYMid meet">
<metadata>
Created by potrace 1.11, written by Peter Selinger 2001-2013
</metadata>
<g transform="translate(0.000000,630.000000) scale(0.100000,-0.100000)"
fill="#000000" stroke="none">
<path d="M0 3150 l0 -3150 3150 0 3150 0 0 3150 0 3150 -3150 0 -3150 0 0
-3150z m1766 1755 c241 -68 377 -324 319 -600 -52 -244 -255 -392 -511 -371
-251 20 -418 197 -432 457 -9 175 39 309 148 411 121 113 300 152 476 103z
m-671 -44 l0 -55 -230 0 -230 -1 -3 -167 -2 -168 200 0 200 0 0 -55 0 -55
-197 -2 -198 -3 -3 -207 -2 -208 -65 0 -65 0 0 490 0 490 298 -2 297 -3 0 -54z
m1642 32 c177 -58 288 -192 316 -384 35 -245 -88 -467 -300 -541 -64 -21 -83
-23 -303 -23 l-235 0 -3 475 c-1 261 0 481 3 489 4 11 46 12 233 9 192 -4 237
-8 289 -25z m571 15 c12 -16 315 -553 350 -622 l24 -48 48 88 c26 49 72 134
102 189 31 55 90 163 132 240 42 77 85 146 94 153 10 8 38 12 72 10 l55 -3 0
-485 0 -485 -57 -3 -58 -3 -2 381 -3 381 -64 -118 c-35 -65 -81 -147 -101
-183 -21 -36 -59 -105 -85 -155 -84 -156 -91 -165 -130 -165 -39 0 -60 23
-117 130 -19 36 -88 162 -154 280 l-119 215 -3 -383 -2 -383 -58 3 -57 3 -3
475 c-1 261 0 481 3 488 3 8 25 12 63 12 36 0 64 -5 70 -12z m1658 -478 c107
-267 194 -486 194 -487 0 -8 -114 -2 -129 6 -9 5 -38 65 -66 135 l-48 126
-215 -2 -215 -3 -49 -125 c-27 -68 -55 -128 -61 -132 -14 -9 -127 -11 -127 -3
0 6 337 854 369 928 l21 48 66 -3 66 -3 194 -485z m609 480 c186 -24 285 -127
285 -295 0 -125 -65 -227 -175 -276 -51 -23 -159 -38 -266 -39 l-76 0 1 -177
1 -178 -67 -3 -68 -3 0 491 0 490 148 0 c81 0 179 -5 217 -10z m-3550 -1339
c197 -46 370 -120 515 -222 98 -68 283 -255 341 -344 138 -209 204 -420 215
-680 19 -433 -136 -801 -449 -1063 -218 -184 -461 -289 -753 -327 l-51 -6 -18
93 c-11 54 -19 139 -19 203 0 189 51 320 185 470 67 75 103 141 119 222 9 42
6 93 -15 275 -14 123 -37 322 -50 443 -36 316 -27 285 -82 285 l-46 0 8 -302
c4 -167 10 -399 14 -516 l6 -212 -57 0 -58 0 -2 488 c0 268 -1 498 -2 512 -1
22 -5 25 -41 25 l-40 0 -3 -517 -2 -518 -50 0 -50 0 0 520 0 520 -45 0 -45 0
-2 -517 -3 -518 -49 -3 c-27 -2 -53 1 -57 5 -5 5 -2 195 6 423 8 228 15 459
15 513 l0 98 -42 -3 -42 -3 -53 -425 c-64 -510 -66 -570 -14 -674 21 -43 58
-94 102 -140 178 -183 230 -422 153 -693 l-15 -53 -44 0 c-57 0 -232 35 -325
66 -113 37 -266 117 -362 189 -163 123 -315 300 -397 463 -49 97 -100 259
-117 374 -22 141 -14 415 15 545 57 258 181 477 374 659 180 171 356 268 593
329 149 38 219 44 444 40 162 -3 224 -8 295 -24z m2775 18 c303 -37 574 -166
789 -373 273 -265 401 -573 401 -966 0 -213 -41 -395 -129 -575 -71 -144 -133
-229 -257 -352 -252 -249 -567 -380 -964 -399 -336 -17 -632 61 -892 233 -87
57 -276 242 -340 333 -93 131 -166 302 -203 470 -22 101 -31 352 -16 472 35
302 156 555 365 764 222 221 458 340 771 389 100 16 363 18 475 4z"/>
<path d="M1521 4795 c-100 -28 -163 -83 -207 -180 -22 -48 -28 -78 -32 -160
-8 -192 49 -307 188 -373 48 -23 68 -27 150 -27 84 0 102 3 152 28 110 54 175
162 185 307 9 128 -27 250 -95 323 -73 77 -226 114 -341 82z"/>
<path d="M2368 4803 c-17 -4 -18 -31 -18 -379 l0 -374 133 0 c182 1 232 13
313 77 104 82 148 253 109 421 -28 119 -105 206 -212 238 -46 15 -288 27 -325
17z"/>
<path d="M4622 4557 c-44 -117 -83 -220 -87 -229 -7 -17 5 -18 168 -18 l175 0
-20 53 c-11 28 -51 132 -88 229 l-67 177 -81 -212z"/>
<path d="M5350 4806 c0 -3 -1 -93 -1 -198 l0 -193 83 -3 c194 -7 293 62 292
203 -1 85 -34 141 -104 172 -35 16 -270 32 -270 19z"/>
<path d="M4173 2704 c-60 -22 -127 -86 -160 -152 -24 -48 -28 -69 -28 -137 1
-72 5 -88 38 -157 27 -55 60 -101 118 -162 100 -106 435 -380 452 -370 6 4 78
61 159 126 229 185 319 279 380 398 31 61 33 71 33 170 0 96 -2 109 -27 151
-33 55 -87 105 -142 130 -54 25 -148 24 -203 0 -53 -25 -161 -130 -193 -190
-6 -12 -14 -21 -18 -21 -4 0 -29 29 -55 65 -54 72 -116 127 -170 150 -45 19
-129 18 -184 -1z"/>
</g>
</svg>
